<?xml version="1.0" encoding="iso-8859-1"?>
<!-- Uploaded to: SVG Repo, www.svgrepo.com, Generator: SVG Repo Mixer Tools -->
<svg version="1.1" id="Layer_1" xmlns="http://www.w3.org/2000/svg" xmlns:xlink="http://www.w3.org/1999/xlink" 
	 viewBox="0 0 512 512" xml:space="preserve">
<path style="fill:#E04C00;" d="M501.875,14.127l-60.13,44.489l29.971,15.641l30.159-30.159
	C510.151,35.821,510.151,22.404,501.875,14.127z"/>
<path style="fill:#FF7D3C;" d="M501.875,14.127c-8.277-8.277-21.694-8.277-29.971,0l-30.159,30.159l5.034,24.936L501.875,14.127z"/>
<polygon style="fill:#9BD6FF;" points="384.871,0 194.395,0 163.048,243.647 194.395,512 384.871,512 "/>
<rect x="3.918" style="fill:#C4EAFF;" width="190.474" height="512"/>
<polygon style="fill:#FF7D3C;" points="251.797,322.774 186.224,436.544 317.372,436.544 "/>
<circle style="fill:#FF8E00;" cx="146.86" cy="247.38" r="64.677"/>
<polygon style="fill:#FFB995;" points="251.798,322.774 186.224,436.544 251.798,436.544 "/>
<path style="fill:#FFBA00;" d="M146.857,182.699c-35.72,0-64.677,28.957-64.677,64.677s28.957,64.677,64.677,64.677V182.699z"/>
<polygon style="fill:#E04C00;" points="165.562,273.206 71.418,436.544 259.706,436.544 "/>
<polygon style="fill:#FF7D3C;" points="165.562,273.206 71.418,436.544 165.562,436.544 "/>
<g>
	<polygon style="fill:#2D64BC;" points="296.232,86.267 194.395,86.267 183.946,70.593 194.395,54.92 296.232,54.92 	"/>
	<polygon style="fill:#2D64BC;" points="273.108,140.165 194.395,140.165 183.946,124.491 194.395,108.818 273.108,108.818 	"/>
</g>
<g>
	<rect x="92.557" y="54.92" style="fill:#6499F3;" width="101.836" height="31.347"/>
	<rect x="115.681" y="108.816" style="fill:#6499F3;" width="78.712" height="31.347"/>
</g>
<polygon style="fill:#FF8E00;" points="448.634,51.175 246.248,269.754 276.219,269.754 471.716,74.257 "/>
<polygon style="fill:#FFBA00;" points="441.744,44.286 246.248,239.783 246.248,269.754 246.248,269.754 456.73,59.272 "/>
</svg>