<?xml version="1.0" encoding="iso-8859-1"?>
<!-- Uploaded to: SVG Repo, www.svgrepo.com, Generator: SVG Repo Mixer Tools -->
<svg height="800px" width="800px" version="1.1" id="Layer_1" xmlns="http://www.w3.org/2000/svg" xmlns:xlink="http://www.w3.org/1999/xlink" 
	 viewBox="0 0 511.883 511.883" xml:space="preserve">
<path style="fill:#ED5564;" d="M511.882,202.626c0,5.89-4.764,10.662-10.653,10.662H10.67c-5.89,0-10.67-4.772-10.67-10.662V74.655
	c0-5.89,4.78-10.669,10.67-10.669h490.56c5.89,0,10.653,4.779,10.653,10.669v127.971H511.882z"/>
<path style="fill:#434A54;" d="M437.244,127.971H74.655c-5.89,0-10.67,4.779-10.67,10.669s4.78,10.662,10.67,10.662h362.589
	c5.889,0,10.654-4.772,10.654-10.662S443.132,127.971,437.244,127.971z"/>
<path style="fill:#FFCE54;" d="M85.324,138.64c-5.873,0-10.669,4.796-10.669,10.662v287.941c0,5.858,2.39,10.654,5.326,10.654
	c2.938,0,9.623-2.141,14.872-4.765l23.588-11.795c5.233-2.624,13.825-2.624,19.074,0l23.572,11.795
	c5.249,2.624,13.841,2.624,19.09,0l23.572-11.795c5.249-2.624,13.825-2.624,19.074,0l23.588,11.795
	c5.233,2.624,13.826,2.624,19.074,0l23.572-11.795c5.25-2.624,13.842-2.624,19.074,0l23.588,11.795
	c5.25,2.624,13.826,2.624,19.074,0l23.588-11.795c5.25-2.624,13.826-2.624,19.074,0l23.572,11.795
	c5.25,2.624,11.936,4.765,14.872,4.765s5.343-4.796,5.343-10.654V149.302c0-5.866-4.812-10.662-10.67-10.662H85.324z"/>
<g>
	<path style="fill:#434A54;" d="M383.912,351.92h-42.646c-5.889,0-10.669,4.78-10.669,10.669c0,5.89,4.78,10.67,10.669,10.67h42.646
		c5.89,0,10.67-4.78,10.67-10.67C394.582,356.7,389.801,351.92,383.912,351.92z"/>
	<path style="fill:#434A54;" d="M170.632,351.92H127.97c-5.889,0-10.653,4.78-10.653,10.669c0,5.89,4.765,10.67,10.653,10.67h42.662
		c5.89,0,10.67-4.78,10.67-10.67C181.302,356.7,176.522,351.92,170.632,351.92z"/>
</g>
<g>
	<path style="fill:#656D78;" d="M341.265,223.949h42.646c5.89,0,10.67-4.772,10.67-10.661c0-5.89-4.78-10.662-10.67-10.662h-42.646
		c-5.889,0-10.669,4.772-10.669,10.662C330.596,219.176,335.377,223.949,341.265,223.949z"/>
	<path style="fill:#656D78;" d="M383.912,245.28h-42.646c-5.889,0-10.669,4.772-10.669,10.662c0,5.889,4.78,10.669,10.669,10.669
		h42.646c5.89,0,10.67-4.78,10.67-10.669C394.582,250.052,389.801,245.28,383.912,245.28z"/>
	<path style="fill:#656D78;" d="M255.941,202.626H127.97c-5.889,0-10.653,4.772-10.653,10.662c0,5.889,4.765,10.661,10.653,10.661
		h127.971c5.89,0,10.67-4.772,10.67-10.661C266.611,207.398,261.831,202.626,255.941,202.626z"/>
	<path style="fill:#656D78;" d="M192.503,245.311v-0.031h-64.532c-5.889,0-10.653,4.772-10.653,10.662
		c0,5.889,4.765,10.669,10.653,10.669h64.532v-0.031c5.64-0.281,10.123-4.929,10.123-10.638
		C202.626,250.24,198.142,245.592,192.503,245.311z"/>
</g>
<g>
	<path style="fill:#F6BB42;" d="M127.97,298.603c-5.889,0-10.653,4.766-10.653,10.67c0,5.873,4.765,10.654,10.653,10.654
		c5.89,0,10.67-4.781,10.67-10.654C138.64,303.369,133.86,298.603,127.97,298.603z"/>
	<path style="fill:#F6BB42;" d="M170.632,298.603c-5.889,0-10.669,4.766-10.669,10.67c0,5.873,4.78,10.654,10.669,10.654
		c5.89,0,10.67-4.781,10.67-10.654C181.302,303.369,176.522,298.603,170.632,298.603z"/>
	<path style="fill:#F6BB42;" d="M213.295,298.603c-5.889,0-10.669,4.766-10.669,10.67c0,5.873,4.78,10.654,10.669,10.654
		c5.89,0,10.654-4.781,10.654-10.654C223.949,303.369,219.184,298.603,213.295,298.603z"/>
	<path style="fill:#F6BB42;" d="M255.941,298.603c-5.889,0-10.653,4.766-10.653,10.67c0,5.873,4.765,10.654,10.653,10.654
		c5.89,0,10.67-4.781,10.67-10.654C266.611,303.369,261.831,298.603,255.941,298.603z"/>
	<path style="fill:#F6BB42;" d="M298.603,298.603c-5.889,0-10.669,4.766-10.669,10.67c0,5.873,4.78,10.654,10.669,10.654
		c5.89,0,10.67-4.781,10.67-10.654C309.273,303.369,304.493,298.603,298.603,298.603z"/>
	<path style="fill:#F6BB42;" d="M341.265,298.603c-5.889,0-10.669,4.766-10.669,10.67c0,5.873,4.78,10.654,10.669,10.654
		c5.89,0,10.654-4.781,10.654-10.654C351.92,303.369,347.155,298.603,341.265,298.603z"/>
	<path style="fill:#F6BB42;" d="M383.912,298.603c-5.889,0-10.653,4.766-10.653,10.67c0,5.873,4.765,10.654,10.653,10.654
		c5.89,0,10.67-4.781,10.67-10.654C394.582,303.369,389.801,298.603,383.912,298.603z"/>
</g>
</svg>