<?xml version="1.0" encoding="iso-8859-1"?>
<!-- Uploaded to: SVG Repo, www.svgrepo.com, Generator: SVG Repo Mixer Tools -->
<!DOCTYPE svg PUBLIC "-//W3C//DTD SVG 1.1//EN" "http://www.w3.org/Graphics/SVG/1.1/DTD/svg11.dtd">
<svg fill="#000000" version="1.1" id="Capa_1" xmlns="http://www.w3.org/2000/svg" xmlns:xlink="http://www.w3.org/1999/xlink" 
	 width="800px" height="800px" viewBox="0 0 45.952 45.951"
	 xml:space="preserve">
<g>
	<g>
		<path d="M40.539,15.115c0-2.951-2.392-5.343-5.343-5.343h-24.44c-2.951,0-5.343,2.392-5.343,5.343v25.493
			c0,2.95,2.392,5.343,5.343,5.343h24.44c2.951,0,5.343-2.393,5.343-5.343V15.115z M10.782,13.819H35.25
			c0.73,0,1.322,0.585,1.322,1.316v6.697H9.459v-6.697C9.459,14.404,10.051,13.819,10.782,13.819z"/>
		<path d="M35.602,1.757C35.602,0.787,29.95,0,23.017,0S10.431,0.786,10.431,1.757v5.992h25.171V1.757z"/>
	</g>
</g>
</svg>