<?xml version="1.0" encoding="iso-8859-1"?>
<!-- Uploaded to: SVG Repo, www.svgrepo.com, Generator: SVG Repo Mixer Tools -->
<svg fill="#000000" height="800px" width="800px" version="1.1" id="Layer_1" xmlns="http://www.w3.org/2000/svg" xmlns:xlink="http://www.w3.org/1999/xlink" 
	 viewBox="0 0 512 512" xml:space="preserve">
<g>
	<g>
		<path d="M346.358,138.025L307.2,98.867V8.533c0-4.717-3.817-8.533-8.533-8.533h-85.333c-4.717,0-8.533,3.817-8.533,8.533v90.333
			l-39.167,39.158c-11.533,11.542-20.567,33.4-20.567,49.767v272.967c0,28.258,22.975,51.242,51.217,51.242h119.433
			c28.242,0,51.217-22.983,51.217-51.242V187.792C366.933,171.425,357.9,149.558,346.358,138.025z M221.867,17.067h68.267v25.6
			h-68.267V17.067z M349.867,460.758c0,18.842-15.317,34.175-34.15,34.175H196.283c-18.833,0-34.15-15.333-34.15-34.175V187.792
			c0-11.991,7.133-29.258,15.567-37.7l41.667-41.658c1.6-1.6,2.5-3.767,2.5-6.033V59.733h68.267V102.4c0,2.267,0.9,4.433,2.5,6.033
			l41.658,41.658c8.442,8.442,15.575,25.708,15.575,37.7V460.758z"/>
	</g>
</g>
<g>
	<g>
		<path d="M256,204.8c-38.283,0-68.267,56.225-68.267,128s29.983,128,68.267,128c38.283,0,68.267-56.225,68.267-128
			S294.283,204.8,256,204.8z M256,443.733c-24.725,0-51.2-44.575-51.2-110.933s26.475-110.933,51.2-110.933
			s51.2,44.575,51.2,110.933S280.725,443.733,256,443.733z"/>
	</g>
</g>
</svg>