<?xml version="1.0" encoding="utf-8"?>
<!-- Uploaded to: SVG Repo, www.svgrepo.com, Generator: SVG Repo Mixer Tools -->
<svg width="800px" height="800px" viewBox="-19.96 0 55.118 55.118" xmlns="http://www.w3.org/2000/svg">
  <g id="Group_313" data-name="Group 313" transform="translate(-577.289 -319.387)">
    <g id="Group_279" data-name="Group 279">
      <g id="vine_bottle_2" data-name="vine bottle 2">
        <g id="Group_274" data-name="Group 274">
          <path id="Path_216" data-name="Path 216" d="M584.883,374.505c-3.781,0-7.594-.96-7.594-3.1v-17.53c0-2.642,1.093-6.864,2.149-10.947.984-3.8,2-7.734,2-9.925v-9.79a1,1,0,0,1,2,0V333c0,2.445-1,6.321-2.064,10.426-1.025,3.962-2.086,8.058-2.086,10.446v17.448c.31.377,2.218,1.186,5.594,1.186s5.284-.809,5.594-1.186V353.871c0-2.388-1.061-6.484-2.086-10.446-1.062-4.1-2.065-7.981-2.065-10.426v-9.79a1,1,0,0,1,2,0V333c0,2.191,1.018,6.122,2,9.925,1.057,4.083,2.15,8.3,2.15,10.947V371.4C592.477,373.545,588.663,374.505,584.883,374.505Z" fill="#333"/>
        </g>
        <g id="Group_275" data-name="Group 275">
          <path id="Path_217" data-name="Path 217" d="M581.531,365.72a1.006,1.006,0,0,1-.188-.018c-3.35-.638-4.053-1.871-4.053-2.792a1,1,0,0,1,2-.09,4.862,4.862,0,0,0,2.432.917,1,1,0,0,1-.187,1.983Z" fill="#333"/>
        </g>
        <g id="Group_276" data-name="Group 276">
          <path id="Path_218" data-name="Path 218" d="M588.239,365.72a1,1,0,0,1-.186-1.983,4.851,4.851,0,0,0,2.431-.917,1,1,0,0,1,2,.09c0,.921-.7,2.153-4.052,2.792A1.016,1.016,0,0,1,588.239,365.72Z" fill="#333"/>
        </g>
        <g id="Group_277" data-name="Group 277">
          <path id="Path_219" data-name="Path 219" d="M581.661,360.96a.984.984,0,0,1-.178-.016c-2.7-.485-4.193-1.488-4.193-2.824a1,1,0,0,1,2-.086,5.134,5.134,0,0,0,2.551.942,1,1,0,0,1-.176,1.984Z" fill="#333"/>
        </g>
        <g id="Group_278" data-name="Group 278">
          <path id="Path_220" data-name="Path 220" d="M588.1,360.95a1,1,0,0,1-.17-1.985,5.107,5.107,0,0,0,2.555-.932,1,1,0,0,1,2,.087c0,1.345-1.495,2.345-4.21,2.815A1,1,0,0,1,588.1,360.95Z" fill="#333"/>
        </g>
      </g>
    </g>
    <g id="Group_295" data-name="Group 295">
      <path id="Path_232" data-name="Path 232" d="M584.883,367.075a4.575,4.575,0,1,1,4.575-4.575A4.58,4.58,0,0,1,584.883,367.075Zm0-7.15a2.575,2.575,0,1,0,2.575,2.575A2.578,2.578,0,0,0,584.883,359.925Z" fill="#333"/>
    </g>
    <g id="Group_302" data-name="Group 302">
      <path id="Path_239" data-name="Path 239" d="M584.894,324.406c-2.423,0-4.182-1.055-4.182-2.509s1.759-2.51,4.182-2.51,4.184,1.055,4.184,2.51S587.318,324.406,584.894,324.406Zm-2.1-2.509a4.605,4.605,0,0,0,4.209,0,4.6,4.6,0,0,0-4.209,0Z" fill="#333"/>
    </g>
    <g id="Group_303" data-name="Group 303">
      <path id="Path_240" data-name="Path 240" d="M584.89,327.41a6.048,6.048,0,0,1-2.934-.671,1,1,0,0,1,.988-1.738,5.123,5.123,0,0,0,3.892,0,1,1,0,0,1,.988,1.738A6.048,6.048,0,0,1,584.89,327.41Z" fill="#333"/>
    </g>
  </g>
</svg>