<?xml version="1.0" encoding="utf-8"?>
<!-- Uploaded to: SVG Repo, www.svgrepo.com, Generator: SVG Repo Mixer Tools -->
<svg width="800px" height="800px" viewBox="-17.97 0 55.118 55.118" xmlns="http://www.w3.org/2000/svg">
  <g id="Group_317" data-name="Group 317" transform="translate(-485.295 -319.387)">
    <g id="Group_273" data-name="Group 273">
      <g id="vine_bottle_3" data-name="vine bottle 3">
        <g id="Group_270" data-name="Group 270">
          <path id="Path_213" data-name="Path 213" d="M494.889,374.505c-3.732,0-7.5-.936-7.592-3.022-.153-1.121-2-14.681-2-17.612,0-2.7,1.557-6.758,3.2-11.055,1.448-3.778,2.946-7.684,2.946-9.817v-9.79a1,1,0,0,1,2,0V333c0,2.5-1.495,6.4-3.079,10.533-1.51,3.938-3.071,8.01-3.071,10.339,0,2.857,1.971,17.249,1.99,17.395a.384.384,0,0,1,.006.049c.3.375,2.208,1.19,5.6,1.19s5.3-.815,5.6-1.19a.384.384,0,0,1,.006-.049c.02-.146,1.99-14.538,1.99-17.395,0-2.329-1.561-6.4-3.072-10.339-1.583-4.13-3.079-8.029-3.079-10.533v-9.79a1,1,0,0,1,2,0V333c0,2.133,1.5,6.039,2.947,9.816,1.648,4.3,3.2,8.356,3.2,11.056,0,2.931-1.848,16.491-2,17.612C502.386,373.569,498.62,374.505,494.889,374.505Z" fill="#333"/>
        </g>
        <g id="Group_271" data-name="Group 271">
          <path id="Path_214" data-name="Path 214" d="M488.5,359.955c-1.327,0-2.426-.332-2.782-1.309a1,1,0,0,1,1.827-.8c.537.269,2.915.2,6.652-1.156,5.586-2.035,7.729-3.3,8.2-3.794a1,1,0,0,1,1.939-.325c.433,1.19.035,2.543-9.451,6A22,22,0,0,1,488.5,359.955Z" fill="#333"/>
        </g>
        <g id="Group_272" data-name="Group 272">
          <path id="Path_215" data-name="Path 215" d="M488.259,368.544c-.2,0-.384-.007-.561-.021a1,1,0,0,1,.16-1.994,17.523,17.523,0,0,0,6.337-1.295l.315-.115c2.868-1.044,6.437-2.344,7.424-3.31a1,1,0,1,1,1.4,1.427c-1.3,1.271-4.62,2.481-8.14,3.763l-.314.114A21.1,21.1,0,0,1,488.259,368.544Z" fill="#333"/>
        </g>
      </g>
    </g>
    <g id="Group_300" data-name="Group 300">
      <path id="Path_237" data-name="Path 237" d="M494.894,324.406c-2.423,0-4.182-1.055-4.182-2.509s1.759-2.51,4.182-2.51,4.184,1.055,4.184,2.51S497.318,324.406,494.894,324.406Zm-2.1-2.509a4.605,4.605,0,0,0,4.209,0,4.6,4.6,0,0,0-4.209,0Z" fill="#333"/>
    </g>
    <g id="Group_301" data-name="Group 301">
      <path id="Path_238" data-name="Path 238" d="M494.89,327.41a6.048,6.048,0,0,1-2.934-.671,1,1,0,0,1,.988-1.738,5.123,5.123,0,0,0,3.892,0,1,1,0,0,1,.988,1.738A6.048,6.048,0,0,1,494.89,327.41Z" fill="#333"/>
    </g>
  </g>
</svg>