<?xml version='1.0' encoding='iso-8859-1'?>
<!-- Uploaded to: SVG Repo, www.svgrepo.com, Generator: SVG Repo Mixer Tools -->
<svg fill="#000000" height="800px" width="800px" version="1.1" xmlns="http://www.w3.org/2000/svg" viewBox="0 0 259.283 259.283" xmlns:xlink="http://www.w3.org/1999/xlink" enable-background="new 0 0 259.283 259.283">
  <path d="m210.777,155.408c0-10.308 2.702-24.256 5.087-36.563 2.269-11.71 4.228-21.823 4.228-29.657 0-16.868-11.149-31.181-26.464-35.957v-29.037c-0.001-13.34-10.854-24.194-24.194-24.194h-79.585c-13.341,0-24.194,10.854-24.194,24.194v29.037c-15.315,4.777-26.463,19.089-26.463,35.957 0,7.834 1.959,17.947 4.228,29.657 2.385,12.307 5.087,26.255 5.087,36.563 0,10.309-2.702,24.257-5.087,36.563-2.269,11.709-4.228,21.822-4.228,29.656 0,20.764 16.892,37.655 37.654,37.655h105.59c20.763,0 37.655-16.892 37.655-37.655 0-7.834-1.959-17.947-4.228-29.656-2.384-12.306-5.086-26.254-5.086-36.563zm-140.544-56.638c-0.625-3.882-1.041-7.254-1.041-9.581 0-4.221 3.434-7.655 7.654-7.655h105.59c4.221,0 7.655,3.435 7.655,7.655 0,2.327-0.416,5.699-1.041,9.581h-118.817zm25.422-68.77h67.973v18.828h-67.973v-18.828zm86.781,199.283h-105.59c-4.221,0-7.654-3.435-7.654-7.655 0-4.955 1.871-14.611 3.68-23.95 2.642-13.632 5.635-29.082 5.635-42.27 0-8.32-1.192-17.542-2.735-26.639h107.741c-1.543,9.097-2.735,18.319-2.735,26.639 0,13.188 2.993,28.638 5.635,42.27 1.809,9.339 3.68,18.995 3.68,23.95-0.002,4.221-3.436,7.655-7.657,7.655z"/>
</svg>