<?xml version="1.0" encoding="utf-8"?><!-- Uploaded to: SVG Repo, www.svgrepo.com, Generator: SVG Repo Mixer Tools -->
<svg width="800px" height="800px" viewBox="0 0 24 24" fill="none" xmlns="http://www.w3.org/2000/svg">
<path d="M17.66 22H6.34C5.24466 22 4.19417 21.5649 3.41965 20.7903C2.64512 20.0158 2.21 18.9653 2.21 17.87V6.52999C2.21 5.43465 2.64512 4.38417 3.41965 3.60964C4.19417 2.83512 5.24466 2.39999 6.34 2.39999H17.66C18.7553 2.39999 19.8058 2.83512 20.5803 3.60964C21.3549 4.38417 21.79 5.43465 21.79 6.52999V17.85C21.7926 18.394 21.6878 18.9332 21.4814 19.4366C21.275 19.94 20.9712 20.3977 20.5874 20.7833C20.2037 21.1689 19.7475 21.4749 19.2451 21.6837C18.7427 21.8925 18.204 22 17.66 22ZM6.34 3.89999C5.64248 3.89999 4.97353 4.17708 4.48031 4.6703C3.98709 5.16352 3.71 5.83247 3.71 6.52999V17.85C3.71 18.5475 3.98709 19.2165 4.48031 19.7097C4.97353 20.2029 5.64248 20.48 6.34 20.48H17.66C18.3575 20.48 19.0265 20.2029 19.5197 19.7097C20.0129 19.2165 20.29 18.5475 20.29 17.85V6.52999C20.29 6.18462 20.222 5.84262 20.0898 5.52354C19.9576 5.20445 19.7639 4.91452 19.5197 4.6703C19.2755 4.42608 18.9855 4.23236 18.6665 4.10019C18.3474 3.96802 18.0054 3.89999 17.66 3.89999H6.34Z" fill="#000000"/>
<path d="M8.19 12.14C7.42087 12.14 6.68325 11.8345 6.13939 11.2906C5.59554 10.7467 5.29 10.0091 5.29 9.23999C5.29 9.04108 5.36902 8.85031 5.50967 8.70966C5.65032 8.56901 5.84109 8.48999 6.04 8.48999C6.23891 8.48999 6.42968 8.56901 6.57033 8.70966C6.71098 8.85031 6.79 9.04108 6.79 9.23999C6.79 9.61129 6.9375 9.96739 7.20005 10.2299C7.4626 10.4925 7.8187 10.64 8.19 10.64C8.5613 10.64 8.9174 10.4925 9.17995 10.2299C9.4425 9.96739 9.59 9.61129 9.59 9.23999C9.59 9.04108 9.66902 8.85031 9.80967 8.70966C9.95032 8.56901 10.1411 8.48999 10.34 8.48999C10.5389 8.48999 10.7297 8.56901 10.8703 8.70966C11.011 8.85031 11.09 9.04108 11.09 9.23999C11.09 9.62082 11.015 9.99793 10.8693 10.3498C10.7235 10.7016 10.5099 11.0213 10.2406 11.2906C9.97132 11.5599 9.65163 11.7735 9.29978 11.9192C8.94794 12.065 8.57083 12.14 8.19 12.14Z" fill="#000000"/>
<path d="M16 12.14C15.2299 12.14 14.4913 11.8348 13.9458 11.2912C13.4004 10.7476 13.0926 10.01 13.09 9.23999C13.09 9.04108 13.169 8.85031 13.3097 8.70966C13.4503 8.56901 13.6411 8.48999 13.84 8.48999C14.0389 8.48999 14.2297 8.56901 14.3703 8.70966C14.511 8.85031 14.59 9.04108 14.59 9.23999C14.6197 9.59215 14.7806 9.92031 15.0408 10.1595C15.3011 10.3986 15.6416 10.5314 15.995 10.5314C16.3484 10.5314 16.6889 10.3986 16.9492 10.1595C17.2094 9.92031 17.3703 9.59215 17.4 9.23999C17.4 9.04108 17.479 8.85031 17.6197 8.70966C17.7603 8.56901 17.9511 8.48999 18.15 8.48999C18.3489 8.48999 18.5397 8.56901 18.6803 8.70966C18.821 8.85031 18.9 9.04108 18.9 9.23999C18.9 9.62082 18.825 9.99793 18.6793 10.3498C18.5335 10.7016 18.3199 11.0213 18.0506 11.2906C17.7813 11.5599 17.4616 11.7735 17.1098 11.9192C16.7579 12.065 16.3808 12.14 16 12.14Z" fill="#000000"/>
<path d="M16 17.62H8.19C7.99109 17.62 7.80032 17.541 7.65967 17.4003C7.51902 17.2597 7.44 17.0689 7.44 16.87C7.44 16.6711 7.51902 16.4803 7.65967 16.3397C7.80032 16.199 7.99109 16.12 8.19 16.12H16C16.1989 16.12 16.3897 16.199 16.5303 16.3397C16.671 16.4803 16.75 16.6711 16.75 16.87C16.75 17.0689 16.671 17.2597 16.5303 17.4003C16.3897 17.541 16.1989 17.62 16 17.62Z" fill="#000000"/>
</svg>