<?xml version="1.0" encoding="iso-8859-1"?>
<!-- Uploaded to: SVG Repo, www.svgrepo.com, Generator: SVG Repo Mixer Tools -->
<!DOCTYPE svg PUBLIC "-//W3C//DTD SVG 1.1//EN" "http://www.w3.org/Graphics/SVG/1.1/DTD/svg11.dtd">
<svg fill="#000000" version="1.1" id="Capa_1" xmlns="http://www.w3.org/2000/svg" xmlns:xlink="http://www.w3.org/1999/xlink" 
	 width="800px" height="800px" viewBox="0 0 32 32" xml:space="preserve">
<g>
	<g>
		<path d="M24.691,28.291h-3.103v-3.754c1.442-0.895,2.632-2.116,3.444-3.555h-9.02v-0.004H6.968
			c0.814,1.438,2.003,2.66,3.444,3.553v3.756H7.309c-1.023,0-1.854,0.83-1.854,1.854c0,1.024,0.831,1.854,1.854,1.854h4.2
			c1.024,0,1.854-0.831,1.854-1.854c0-0.047-0.004-0.095-0.007-0.142c0.004-0.049,0.007-0.101,0.007-0.149v-4.063
			c0.837,0.215,1.717,0.336,2.625,0.345v0.006c0.917-0.008,1.805-0.128,2.648-0.346v4.062c0,0.052,0.002,0.102,0.008,0.15
			c-0.004,0.047-0.008,0.094-0.008,0.143c0,1.023,0.83,1.854,1.854,1.854h4.2c1.023,0,1.854-0.831,1.854-1.854
			C26.545,29.123,25.716,28.291,24.691,28.291z"/>
		<path d="M12.91,16.689c0.722,0,1.306-0.586,1.306-1.307c0-0.722-0.584-1.307-1.306-1.307c-0.051,0-0.101,0.004-0.151,0.01
			c0.094,0.129,0.151,0.287,0.151,0.459c0,0.434-0.352,0.785-0.784,0.785c-0.191,0-0.364-0.071-0.5-0.184
			c-0.013,0.077-0.022,0.156-0.022,0.236C11.603,16.104,12.188,16.689,12.91,16.689z"/>
		<path d="M7.158,17.407c0,0.753,0.107,1.481,0.306,2.177h8.525v0.004h8.549c0.199-0.693,0.306-1.423,0.306-2.176
			c0-3.608-2.435-6.681-5.848-7.861c0.062-0.207,0.096-0.426,0.096-0.653c0-0.479-0.148-0.923-0.398-1.291l1.832-3.438
			c0.125,0.023,0.252,0.037,0.384,0.037c1.159,0,2.101-0.94,2.101-2.101c0-1.16-0.941-2.101-2.101-2.101
			c-1.161,0-2.101,0.941-2.101,2.101c0,0.535,0.201,1.022,0.529,1.393l-1.734,3.257c-0.25-0.093-0.519-0.147-0.801-0.147h-0.79
			V6.604H15.2c-0.283,0-0.551,0.053-0.801,0.147l-1.736-3.259c0.329-0.371,0.531-0.857,0.531-1.392c0-1.16-0.941-2.1-2.1-2.1
			c-1.16,0-2.101,0.94-2.101,2.101c0,1.16,0.94,2.1,2.101,2.1c0.131,0,0.259-0.014,0.384-0.037l1.832,3.438
			c-0.252,0.367-0.4,0.812-0.4,1.291c0,0.227,0.035,0.445,0.096,0.652C9.592,10.726,7.158,13.8,7.158,17.407z M21.589,15.388
			c0,1.379-1.117,2.498-2.498,2.498c-1.38,0-2.498-1.118-2.498-2.498s1.118-2.498,2.498-2.498
			C20.472,12.89,21.589,14.008,21.589,15.388z M12.91,12.885c1.379,0,2.498,1.118,2.498,2.498c0,1.381-1.118,2.498-2.498,2.498
			s-2.498-1.119-2.498-2.498S11.53,12.885,12.91,12.885z"/>
		<path d="M19.093,16.693c0.721,0,1.305-0.584,1.305-1.305c0-0.081-0.008-0.16-0.021-0.237c-0.136,0.113-0.309,0.184-0.5,0.184
			c-0.434,0-0.783-0.351-0.783-0.785c0-0.172,0.057-0.331,0.15-0.46c-0.051-0.005-0.102-0.009-0.15-0.009
			c-0.723,0-1.307,0.585-1.307,1.307C17.787,16.109,18.371,16.693,19.093,16.693z"/>
	</g>
</g>
</svg>