<?xml version="1.0" encoding="iso-8859-1"?>
<!-- Uploaded to: SVG Repo, www.svgrepo.com, Generator: SVG Repo Mixer Tools -->
<!DOCTYPE svg PUBLIC "-//W3C//DTD SVG 1.1//EN" "http://www.w3.org/Graphics/SVG/1.1/DTD/svg11.dtd">
<svg fill="#000000" version="1.1" id="Capa_1" xmlns="http://www.w3.org/2000/svg" xmlns:xlink="http://www.w3.org/1999/xlink" 
	 width="800px" height="800px" viewBox="0 0 31.09 31.09" xml:space="preserve"
	>
<g>
	<g>
		<circle cx="20.544" cy="15.436" r="1.441"/>
		<path d="M27.423,14.993l-2.23-0.268c-0.229-0.851-0.562-1.655-0.992-2.401l1.387-1.763c0.211-0.271,0.188-0.69-0.057-0.934
			l-2.299-2.3c-0.243-0.243-0.663-0.269-0.934-0.057l-1.767,1.389c-0.743-0.43-1.547-0.764-2.396-0.99l-0.269-2.231
			c-0.041-0.341-0.354-0.62-0.698-0.62h-3.252c-0.344,0-0.659,0.279-0.699,0.62L12.95,7.669c-0.85,0.227-1.655,0.562-2.398,0.991
			L8.786,7.273c-0.27-0.212-0.69-0.187-0.933,0.056L5.554,9.63c-0.243,0.242-0.268,0.662-0.055,0.934l1.387,1.764
			c-0.43,0.744-0.764,1.549-0.991,2.4l-2.23,0.267c-0.341,0.04-0.621,0.355-0.621,0.699v3.252c0,0.345,0.279,0.658,0.621,0.699
			l2.231,0.269l19.295-0.003l2.231-0.268c0.34-0.041,0.621-0.354,0.621-0.699v-3.252C28.044,15.348,27.765,15.034,27.423,14.993z
			 M13.427,15.812c0,0.079-0.064,0.15-0.143,0.16l-0.515,0.062c-0.052,0.195-0.129,0.381-0.229,0.553l0.32,0.407
			c0.049,0.062,0.043,0.159-0.013,0.215l-0.53,0.53c-0.056,0.057-0.153,0.062-0.215,0.014l-0.407-0.32
			c-0.171,0.1-0.357,0.176-0.553,0.229l-0.062,0.515c-0.009,0.079-0.082,0.143-0.161,0.143h-0.75c-0.079,0-0.152-0.063-0.161-0.143
			l-0.062-0.516c-0.196-0.053-0.381-0.129-0.553-0.229l-0.407,0.32c-0.063,0.049-0.16,0.043-0.215-0.013l-0.53-0.53
			c-0.056-0.056-0.062-0.152-0.013-0.215l0.32-0.407c-0.099-0.171-0.176-0.357-0.229-0.552l-0.515-0.062
			c-0.079-0.01-0.143-0.082-0.143-0.161v-0.75c0-0.08,0.064-0.151,0.143-0.162l0.514-0.062c0.053-0.196,0.13-0.382,0.229-0.554
			l-0.32-0.407c-0.049-0.063-0.043-0.16,0.013-0.215l0.53-0.531c0.056-0.056,0.153-0.062,0.215-0.013l0.407,0.32
			c0.171-0.099,0.357-0.176,0.553-0.229l0.062-0.515c0.009-0.079,0.082-0.143,0.161-0.143h0.75c0.079,0,0.152,0.064,0.161,0.143
			l0.062,0.515c0.195,0.052,0.381,0.129,0.552,0.228l0.407-0.32c0.063-0.049,0.159-0.043,0.215,0.013l0.53,0.53
			c0.056,0.056,0.062,0.152,0.013,0.215l-0.32,0.406c0.1,0.172,0.177,0.358,0.229,0.554l0.515,0.062
			c0.079,0.01,0.143,0.082,0.143,0.16v0.754H13.427z M23.427,15.812c0,0.079-0.064,0.15-0.144,0.16l-0.515,0.062
			c-0.053,0.195-0.129,0.381-0.229,0.553l0.319,0.407c0.049,0.062,0.043,0.159-0.013,0.215l-0.53,0.53
			c-0.056,0.057-0.153,0.062-0.215,0.014l-0.407-0.32c-0.171,0.1-0.357,0.176-0.553,0.229l-0.062,0.515
			c-0.009,0.079-0.082,0.143-0.16,0.143h-0.75c-0.08,0-0.152-0.063-0.162-0.143l-0.062-0.516c-0.196-0.053-0.381-0.129-0.553-0.229
			l-0.407,0.32c-0.062,0.049-0.16,0.043-0.215-0.013l-0.53-0.53c-0.056-0.056-0.062-0.152-0.013-0.215l0.32-0.407
			c-0.1-0.171-0.176-0.357-0.229-0.552l-0.515-0.062c-0.079-0.01-0.143-0.082-0.143-0.161v-0.75c0-0.08,0.063-0.151,0.143-0.162
			l0.514-0.062c0.053-0.196,0.13-0.382,0.229-0.554l-0.319-0.407c-0.05-0.063-0.043-0.16,0.013-0.215l0.53-0.531
			c0.056-0.056,0.153-0.062,0.215-0.013l0.407,0.32c0.171-0.099,0.357-0.176,0.553-0.229l0.062-0.515
			c0.009-0.079,0.082-0.143,0.16-0.143h0.75c0.08,0,0.152,0.064,0.162,0.143l0.062,0.515c0.194,0.052,0.381,0.129,0.552,0.228
			l0.407-0.32c0.063-0.049,0.159-0.043,0.215,0.013l0.53,0.53c0.056,0.056,0.062,0.152,0.013,0.215l-0.319,0.406
			c0.1,0.172,0.176,0.358,0.229,0.554l0.515,0.062c0.079,0.01,0.144,0.082,0.144,0.16v0.754H23.427z"/>
		<circle cx="10.545" cy="15.436" r="1.441"/>
		<path d="M6.091,7.082L2.39,3.89c0.386-0.52,0.348-1.256-0.124-1.728c-0.518-0.518-1.359-0.518-1.878,0
			c-0.518,0.519-0.518,1.36,0,1.878C0.86,4.512,1.596,4.55,2.115,4.163l3.193,3.702L6.091,7.082z"/>
		<path d="M30.702,2.161c-0.52-0.518-1.359-0.518-1.878,0c-0.472,0.472-0.509,1.208-0.124,1.728l-3.701,3.192l0.782,0.783
			l3.193-3.702c0.521,0.387,1.255,0.349,1.728-0.123C31.22,3.522,31.22,2.68,30.702,2.161z"/>
		<path d="M23.6,22.353l0.169-0.293c0.221-0.384,0.41-0.787,0.576-1.199h-3.065c-1.19,1.922-3.313,3.207-5.734,3.207
			c-2.422,0-4.544-1.287-5.735-3.207H6.745c0.166,0.414,0.354,0.816,0.576,1.199l0.169,0.293l-1.594,2.031
			c-0.055,0.07-0.047,0.208,0.017,0.271l2.297,2.3c0.06,0.061,0.202,0.069,0.271,0.017l2.032-1.599l0.293,0.169
			c0.712,0.412,1.479,0.729,2.277,0.941l0.327,0.086l0.308,2.568c0.01,0.09,0.113,0.18,0.203,0.18h3.252
			c0.09,0,0.191-0.09,0.203-0.179l0.308-2.567l0.327-0.088c0.799-0.213,1.564-0.529,2.277-0.94l0.293-0.169l2.03,1.596
			c0.067,0.053,0.211,0.043,0.271-0.017l2.3-2.3c0.063-0.064,0.071-0.199,0.015-0.272L23.6,22.353z"/>
	</g>
</g>
</svg>