<?xml version="1.0" encoding="iso-8859-1"?>
<!-- Uploaded to: SVG Repo, www.svgrepo.com, Generator: SVG Repo Mixer Tools -->
<svg fill="#000000" height="800px" width="800px" version="1.1" id="Layer_1" xmlns="http://www.w3.org/2000/svg" xmlns:xlink="http://www.w3.org/1999/xlink" 
	 viewBox="0 0 512 512" xml:space="preserve">
<g>
	<g>
		<path d="M465.455,240.485v-77.576H279.273v-52.787c13.908-8.049,23.273-23.079,23.273-40.304c0-25.706-20.84-46.545-46.545-46.545
			s-46.545,20.84-46.545,46.545c0,17.225,9.365,32.254,23.273,40.304v52.787H46.545v77.576H0v124.121h46.545v77.576h139.636v46.545
			h139.636v-46.545h139.636v-77.576H512V240.485H465.455z M465.455,318.061h-46.545v77.576H279.273v46.545h-46.545v-46.545H93.091
			v-77.576H46.545v-31.03h46.545v-77.576h325.818v77.576h46.545V318.061z"/>
	</g>
</g>
<g>
	<g>
		<circle cx="162.909" cy="271.515" r="31.03"/>
	</g>
</g>
<g>
	<g>
		<circle cx="349.091" cy="271.515" r="31.03"/>
	</g>
</g>
<g>
	<g>
		<path d="M209.455,318.061c0,25.706,20.84,46.545,46.545,46.545s46.545-20.84,46.545-46.545H209.455z"/>
	</g>
</g>
</svg>