<?xml version="1.0" encoding="iso-8859-1"?>
<!-- Uploaded to: SVG Repo, www.svgrepo.com, Generator: SVG Repo Mixer Tools -->
<svg fill="#000000" version="1.1" id="Layer_1" xmlns="http://www.w3.org/2000/svg" xmlns:xlink="http://www.w3.org/1999/xlink" 
	 viewBox="0 0 290.626 290.626" xml:space="preserve">
<g>
	<g>
		<g>
			<path d="M243.75,112.5c0-0.67-0.108-1.317-0.197-1.964c-1.917-26.409-21.225-48.455-46.964-53.569
				c0.183-1.777,0.286-3.581,0.286-5.405C196.875,23.133,173.742,0,145.313,0C116.885,0,93.75,23.133,93.75,51.563
				c0,1.659,0.094,3.295,0.248,4.913c-26.358,2.264-47.123,24.403-47.123,51.337v60.938c0,10.341,8.409,18.75,18.75,18.75
				s18.75-8.409,18.75-18.75c0-1.833,0.548-3.53,1.458-4.973l50.484,119.32c1.05,2.442,3.23,7.528,8.995,7.528
				s7.945-5.086,8.948-7.42l51.989-113.433v-0.328c21.905-8.494,37.5-29.738,37.5-54.6c0-0.787-0.075-1.561-0.108-2.344
				L243.75,112.5L243.75,112.5z M231.628,98.634c-0.637-0.089-1.275-0.197-1.941-0.197c-7.753,0-14.063,6.309-14.063,14.063
				c0,5.17-4.205,9.375-9.375,9.375s-9.375-4.205-9.375-9.375V98.438c0-7.495-4.772-13.158-10.205-16.214
				c3.567-4.795,6.333-10.205,8.067-16.073C212.123,69.595,226.003,82.252,231.628,98.634z M145.313,9.375
				c23.264,0,42.188,18.928,42.188,42.188S168.578,93.75,145.313,93.75c-23.264,0-42.188-18.928-42.188-42.188
				S122.048,9.375,145.313,9.375z M111.332,199.983l12.886-12.886l9.778,9.778l-16.851,16.852L111.332,199.983z M121.087,223.04
				l0.788-0.787l9.778,9.778l-4.753,4.753L121.087,223.04z M145.693,279.403c-0.141,0.323-0.267,0.605-0.38,0.844
				c-0.108-0.234-0.234-0.506-0.37-0.82l-14.1-33.323l7.439-7.439l8.405,8.405l6.628-6.628l-8.405-8.409l13.092-13.092l-6.628-6.628
				l-13.092,13.092l-9.778-9.778l34.186-34.186l-6.628-6.628l-15.436,15.436l-9.778-9.778l8.405-8.405l-6.628-6.628l-8.405,8.405
				l-8.405-8.405l-6.628,6.628l8.405,8.405l-10.2,10.2L94.074,159.19c1.444,0.122,2.897,0.188,4.364,0.188
				c14.222,0,27.117-5.789,36.455-15.136c10.364,17.934,29.381,29.198,50.264,29.198c3.234,0,6.389-0.333,9.487-0.839
				L145.693,279.403z M185.156,164.063c-18.698,0-35.625-10.791-43.833-27.675c5.475-8.184,8.677-18.009,8.677-28.575h-9.375
				c0,23.259-18.923,42.188-42.188,42.188c-9.216,0-17.967-2.916-25.308-8.433l-5.634,7.495c3.9,2.93,8.142,5.222,12.6,6.923
				C76.959,159.338,75,163.805,75,168.75c0,5.17-4.205,9.375-9.375,9.375s-9.375-4.205-9.375-9.375v-60.938
				c0-22.364,17.508-40.673,39.534-42.052c6.183,21.539,26.025,37.364,49.528,37.364c13.416,0,25.617-5.194,34.795-13.622
				c3.019,1.041,7.392,4.045,7.392,8.934V112.5c0,10.341,8.409,18.75,18.75,18.75S225,122.841,225,112.5
				c0-2.583,2.1-4.688,4.688-4.688c2.344,0,4.2,1.753,4.547,3.998c0.061,1.008,0.141,2.011,0.141,3.033
				C234.375,141.984,212.297,164.063,185.156,164.063z"/>
			<rect x="140.625" y="14.063" width="9.375" height="9.375"/>
			<rect x="121.875" y="23.438" width="9.375" height="9.375"/>
			<rect x="164.063" y="37.5" width="9.375" height="9.375"/>
			<rect x="70.313" y="89.063" width="9.375" height="9.375"/>
			<rect x="84.375" y="75" width="9.375" height="9.375"/>
			<rect x="206.25" y="84.375" width="9.375" height="9.375"/>
			<rect x="159.375" y="112.5" width="9.375" height="9.375"/>
		</g>
	</g>
</g>
</svg>