<?xml version="1.0" encoding="iso-8859-1"?>
<!-- Uploaded to: SVG Repo, www.svgrepo.com, Generator: SVG Repo Mixer Tools -->
<svg fill="#000000" height="800px" width="800px" version="1.1" id="Layer_1" xmlns="http://www.w3.org/2000/svg" xmlns:xlink="http://www.w3.org/1999/xlink" 
	 viewBox="0 0 499.048 499.048" xml:space="preserve">
<g>
	<g>
		<path d="M289.388,42.868h-77.824c-32.292,0-58.56,26.284-58.56,58.592c0,2.208,1.792,4,4,4c2.208,0,4-1.788,4-4
			c0-27.896,22.68-50.592,50.56-50.592h77.824c27.884,0,50.564,22.692,50.564,50.58c0,2.208,1.792,4,4,4s4-1.792,4-4
			C347.952,69.144,321.68,42.868,289.388,42.868z"/>
	</g>
</g>
<g>
	<g>
		<path d="M289.452,58.46h-77.948c-23.696,0-42.972,19.24-42.972,42.892c0,2.208,1.792,4,4,4c2.208,0,4-1.792,4-4
			c0-19.24,15.688-34.892,34.972-34.892h77.948c19.284,0,34.972,15.672,34.972,34.932c0,2.208,1.792,4,4,4s4-1.792,4-4
			C332.424,77.72,313.148,58.46,289.452,58.46z"/>
	</g>
</g>
<g>
	<g>
		<path d="M464.824,97.432H36.128C16.544,97.432,0,113.54,0,132.608v288.388c0,19.072,16.544,35.184,36.128,35.184h428.696
			c19.192,0,34.224-15.456,34.224-35.184V132.608C499.048,112.884,484.012,97.432,464.824,97.432z M491.048,420.996
			c0,15.244-11.52,27.184-26.224,27.184H36.128C20.88,448.18,8,435.732,8,420.996V132.608c0-14.732,12.88-27.176,28.128-27.176
			h428.696c14.708,0,26.224,11.936,26.224,27.176V420.996z"/>
	</g>
</g>
<g>
	<g>
		<path d="M459.972,152.096c-2.208,0-4,1.792-4,4v206.448c0,2.208,1.792,4,4,4c2.212,0,4-1.792,4-4V156.096
			C463.972,153.888,462.18,152.096,459.972,152.096z"/>
	</g>
</g>
<g>
	<g>
		<path d="M405.412,132.504H58.56c-2.208,0-4,1.792-4,4c0,2.208,1.792,4,4,4h346.856c2.208,0,3.996-1.792,3.996-4
			C409.412,134.296,407.62,132.504,405.412,132.504z"/>
	</g>
</g>
<g>
	<g>
		<path d="M42.972,183.168c-2.208,0-4,1.792-4,4v214.348c0,2.208,1.792,4,4,4c2.212,0,4-1.792,4-4V187.168
			C46.972,184.96,45.18,183.168,42.972,183.168z"/>
	</g>
</g>
<g>
	<g>
		<path d="M443.264,413.104H93.636c-2.208,0-4,1.792-4,4s1.792,4,4,4h349.632c2.208,0,3.996-1.792,3.996-4
			S445.472,413.104,443.264,413.104z"/>
	</g>
</g>
<g>
	<g>
		<path d="M67.304,97.428c-2.208,0-4,1.792-4,4c0,32.18-26.18,58.356-58.356,58.356c-2.208,0-4,1.792-4,4s1.792,4,4,4
			c36.588,0,66.356-29.764,66.356-66.356C71.304,99.22,69.512,97.428,67.304,97.428z"/>
	</g>
</g>
<g>
	<g>
		<path d="M495.048,159.784c-32.188,0-57.404-25.632-57.404-58.356c0-2.208-1.792-4-4-4s-4,1.792-4,4
			c0,37.208,28.732,66.356,65.404,66.356c2.208,0,4-1.792,4-4S497.256,159.784,495.048,159.784z"/>
	</g>
</g>
<g>
	<g>
		<path d="M4.948,385.816c-2.208,0-4,1.792-4,4s1.792,4,4,4c32.18,0,58.356,26.18,58.356,58.356c0,2.208,1.792,4,4,4
			c2.212,0,4-1.792,4-4C71.304,415.584,41.536,385.816,4.948,385.816z"/>
	</g>
</g>
<g>
	<g>
		<path d="M495.048,385.824c-36.676,0-65.404,29.144-65.404,66.348c0,2.208,1.792,4,4,4c2.212,0,4-1.792,4-4
			c0-32.72,25.216-58.348,57.404-58.348c2.208,0,4-1.792,4-4S497.256,385.824,495.048,385.824z"/>
	</g>
</g>
</svg>