<?xml version="1.0" ?>
<!DOCTYPE svg  PUBLIC '-//W3C//DTD SVG 1.1//EN'  'http://www.w3.org/Graphics/SVG/1.1/DTD/svg11.dtd'>
<!-- Uploaded to: SVG Repo, www.svgrepo.com, Generator: SVG Repo Mixer Tools -->
<svg width="800px" height="800px" viewBox="0 0 70.866 70.866" enable-background="new 0 0 70.866 70.865" version="1.1" xml:space="preserve" xmlns="http://www.w3.org/2000/svg" xmlns:xlink="http://www.w3.org/1999/xlink">
<g id="圖層_1">
<g>
<ellipse cx="35.433" cy="42.964" fill="#FFFFFF" rx="32.5" ry="12.001" stroke="#040000" stroke-linecap="round" stroke-linejoin="round" stroke-miterlimit="10" stroke-width="3"/>
<path d="    M16.743,42.028H16.73c-0.024-3.107,0.286-6.345,0.948-9.528c2.086-10.041,7.168-16.6,11.756-16.6c0.648,0,1.275,0.124,1.875,0.359    c2.617,1.03,5.631,1.03,8.249,0c0.6-0.235,1.226-0.359,1.874-0.359c4.588,0,9.67,6.559,11.757,16.6    c0.661,3.184,0.972,6.421,0.948,9.528h-0.014c0.005,0.037,0.014,0.073,0.014,0.111c0,2.145-8.375,3.883-18.705,3.883    s-18.703-1.738-18.703-3.883C16.729,42.102,16.737,42.065,16.743,42.028z" fill="#FFFFFF" stroke="#040000" stroke-linecap="round" stroke-linejoin="round" stroke-miterlimit="10" stroke-width="3"/>
</g>
</g>
<g id="圖層標註"/>
</svg>