<?xml version="1.0" encoding="utf-8"?><!-- Uploaded to: SVG Repo, www.svgrepo.com, Generator: SVG Repo Mixer Tools -->
<svg version="1.1" id="Uploaded to svgrepo.com" xmlns="http://www.w3.org/2000/svg" xmlns:xlink="http://www.w3.org/1999/xlink" 
	 width="800px" height="800px" viewBox="0 0 32 32" xml:space="preserve">
<style type="text/css">
	.feather_een{fill:#0B1719;}
</style>
<path class="feather_een" d="M16,6C10.486,6,6,10.486,6,16c0,5.514,4.486,10,10,10s10-4.486,10-10C26,10.486,21.514,6,16,6z
	 M18,7.231c1.003,0.228,1.94,0.624,2.785,1.156L18,11.172V7.231z M14.9,7.074C15.261,7.03,15.627,7,16,7s0.739,0.03,1.1,0.074v5.099
	C16.748,12.071,16.384,12,16,12s-0.748,0.071-1.1,0.172V7.074z M19,16c0,1.654-1.346,3-3,3s-3-1.346-3-3c0-1.654,1.346-3,3-3
	S19,14.346,19,16z M14,7.231v3.941l-2.785-2.785C12.06,7.855,12.997,7.459,14,7.231z M10.467,8.912l3.604,3.604
	c-0.655,0.364-1.192,0.9-1.556,1.556l-3.604-3.604C9.365,9.887,9.887,9.365,10.467,8.912z M8.387,11.215l2.77,2.77l-3.919-0.012
	C7.466,12.98,7.86,12.052,8.387,11.215z M7,16c0-0.383,0.032-0.757,0.078-1.128l5.098,0.015C12.073,15.243,12,15.611,12,16
	c0,0.38,0.07,0.74,0.169,1.087L7.07,17.073C7.028,16.72,7,16.364,7,16z M7.224,17.973l3.962,0.012l-2.799,2.799
	C7.85,19.932,7.451,18.986,7.224,17.973z M14,24.769c-1.003-0.228-1.94-0.624-2.785-1.156L14,20.828V24.769z M10.467,23.088
	c-0.58-0.453-1.102-0.975-1.556-1.556l3.604-3.604c0.364,0.655,0.9,1.192,1.556,1.556L10.467,23.088z M17.1,24.926
	C16.739,24.97,16.373,25,16,25s-0.739-0.03-1.1-0.074v-5.099C15.252,19.929,15.616,20,16,20s0.748-0.071,1.1-0.172V24.926z
	 M18,24.769v-3.941l2.785,2.785C19.94,24.145,19.003,24.541,18,24.769z M21.533,23.088l-3.604-3.604
	c0.655-0.364,1.192-0.9,1.556-1.556l3.604,3.604C22.635,22.113,22.113,22.635,21.533,23.088z M23.613,20.785l-2.77-2.77l3.919,0.012
	C24.533,19.02,24.14,19.948,23.613,20.785z M25,16c0,0.383-0.032,0.757-0.078,1.127l-5.098-0.015C19.927,16.757,20,16.389,20,16
	c0-0.38-0.07-0.74-0.169-1.087l5.099,0.015C24.972,15.28,25,15.636,25,16z M24.776,14.027l-3.962-0.012l2.799-2.799
	C24.15,12.068,24.549,13.014,24.776,14.027z M19.484,14.072c-0.364-0.655-0.9-1.192-1.556-1.556l3.604-3.604
	c0.58,0.454,1.102,0.975,1.556,1.556L19.484,14.072z M30.006,14.043l-1.17-0.004c-0.32-2.11-1.143-4.05-2.349-5.698l0.826-0.826
	c0.391-0.391,0.391-1.024,0-1.414l-1.414-1.414c-0.195-0.195-0.451-0.293-0.707-0.293s-0.512,0.098-0.707,0.293l-0.826,0.826
	C22.021,4.314,20.095,3.494,18,3.169V2c0-0.552-0.448-1-1-1h-2c-0.552,0-1,0.448-1,1v1.169c-2.095,0.324-4.021,1.144-5.659,2.343
	L7.515,4.686C7.319,4.491,7.064,4.393,6.808,4.393S6.296,4.491,6.101,4.686L4.686,6.101c-0.391,0.391-0.391,1.024,0,1.414
	l0.826,0.826c-1.191,1.628-2.008,3.54-2.337,5.62l-1.169-0.004c-0.552-0.002-1.001,0.445-1.003,0.997l-0.006,2
	c-0.002,0.552,0.445,1.001,0.997,1.003l1.17,0.004c0.32,2.11,1.143,4.05,2.349,5.698l-0.826,0.826c-0.391,0.391-0.391,1.024,0,1.414
	l1.414,1.414c0.195,0.195,0.451,0.293,0.707,0.293s0.512-0.098,0.707-0.293l0.826-0.826c1.638,1.199,3.564,2.019,5.659,2.343V30
	c0,0.552,0.448,1,1,1h2c0.552,0,1-0.448,1-1v-1.169c2.095-0.324,4.021-1.144,5.659-2.343l0.826,0.826
	c0.195,0.195,0.451,0.293,0.707,0.293s0.512-0.098,0.707-0.293l1.414-1.414c0.391-0.391,0.391-1.024,0-1.414l-0.826-0.826
	c1.191-1.628,2.008-3.54,2.337-5.62l1.169,0.004c0.552,0.002,1.001-0.445,1.003-0.997l0.006-2
	C31.005,14.494,30.558,14.045,30.006,14.043z M3.054,17.06l-1.057-0.003c-0.055,0-0.1-0.045-0.1-0.1l0.006-2
	c0-0.055,0.045-0.1,0.1-0.1l1.054,0.003C3.025,15.237,3,15.615,3,16C3,16.358,3.025,16.71,3.054,17.06z M25.122,5.323
	c0.019-0.019,0.043-0.029,0.071-0.029s0.051,0.01,0.071,0.029l1.414,1.414c0.033,0.033,0.033,0.108,0,0.141l-0.744,0.744
	c-0.474-0.561-0.994-1.082-1.556-1.556L25.122,5.323z M14.9,2c0-0.055,0.045-0.1,0.1-0.1h2c0.055,0,0.1,0.045,0.1,0.1v1.056
	C16.737,3.025,16.371,3,16,3c-0.371,0-0.737,0.025-1.1,0.056V2z M5.323,6.878c-0.033-0.033-0.033-0.108,0-0.141l1.414-1.414
	C6.756,5.303,6.78,5.293,6.808,5.293s0.051,0.01,0.071,0.029l0.744,0.744C7.061,6.541,6.541,7.061,6.067,7.623L5.323,6.878z
	 M6.878,26.677c-0.019,0.019-0.043,0.029-0.071,0.029s-0.051-0.01-0.071-0.029l-1.414-1.414c-0.033-0.033-0.033-0.108,0-0.141
	l0.744-0.744c0.474,0.561,0.994,1.082,1.556,1.556L6.878,26.677z M17.1,30c0,0.055-0.045,0.1-0.1,0.1h-2c-0.055,0-0.1-0.045-0.1-0.1
	v-1.056C15.263,28.975,15.629,29,16,29c0.371,0,0.737-0.025,1.1-0.056V30z M26.677,25.122c0.033,0.033,0.033,0.108,0,0.141
	l-1.414,1.414c-0.019,0.019-0.043,0.029-0.071,0.029s-0.051-0.01-0.071-0.029l-0.744-0.744c0.561-0.474,1.082-0.994,1.556-1.556
	L26.677,25.122z M16,28C9.383,28,4,22.617,4,16S9.383,4,16,4s12,5.383,12,12S22.617,28,16,28z M30.097,17.043
	c0,0.055-0.045,0.1-0.1,0.1l-1.054-0.003C28.975,16.763,29,16.385,29,16c0-0.358-0.025-0.71-0.054-1.06l1.057,0.003
	c0.055,0,0.1,0.045,0.1,0.1L30.097,17.043z"/>
</svg>