<?xml version="1.0" encoding="utf-8"?>
<!-- Uploaded to: SVG Repo, www.svgrepo.com, Generator: SVG Repo Mixer Tools -->
<svg fill="#000000" height="800px" width="800px" version="1.2" baseProfile="tiny" id="Layer_1" xmlns="http://www.w3.org/2000/svg" xmlns:xlink="http://www.w3.org/1999/xlink"
	  viewBox="0 0 256 256" xml:space="preserve">
<g id="XMLID_2_">
	<g id="XMLID_3_">
		<path id="XMLID_12_" d="M201.5,77.5V45.9h-2.9c-8.7,0-15.8,7.1-15.8,15.8c0,8.7,7.1,15.8,15.8,15.8H201.5z"/>
		<path id="XMLID_11_" d="M177.6,70.3l-13.8-27.6c-3.1-5.7-9-9.5-16-9.5h-32.1c-3,0-5.4,2.4-5.4,5.4c0,3,2.4,5.4,5.4,5.4l32.1,0
			c2.6,0,5.5,1.8,6.6,4.2l8.8,17.6L177.6,70.3z"/>
		<path id="XMLID_10_" d="M241.3,99.8c4.2,1.2,7.2,5.1,7.2,9.6l-23.3,0c-30.7,0-55.7,25-55.7,55.7h-76c0-24.7-16.1-45.7-38.3-53
			L13.3,98.4l6.9-10.6c2.5-3.7,6.7-6.1,11.5-6.1c1.1,0,2.1,0.1,3,0.3l93.4,28.9c1.2,0.3,2.3,0.5,3.6,0.5c4.2,0,7.9-2.1,10.1-5.4
			L163,75.4L241.3,99.8z"/>
		<path id="XMLID_7_" d="M178.8,174.9c0-21,17-38,38-38s38,16.9,38,38c0,21-17,38-38,38S178.8,195.8,178.8,174.9z M216.8,189.1
			c7.9,0,14.2-6.4,14.2-14.2c0-7.9-6.3-14.2-14.2-14.2c-7.8,0-14.1,6.3-14.1,14.2C202.6,182.7,209,189.1,216.8,189.1z"/>
		<path id="XMLID_4_" d="M0,170.8c0-23,18.7-41.7,41.8-41.7c23.1,0,41.7,18.7,41.7,41.7c0,23.1-18.6,41.8-41.7,41.8
			C18.7,212.6,0,193.9,0,170.8z M41.8,186.4c8.6,0,15.6-7,15.6-15.6c0-8.6-7-15.6-15.6-15.6c-8.7,0-15.6,7-15.6,15.6
			C26.2,179.5,33.2,186.4,41.8,186.4z"/>
	</g>
</g>
</svg>