<?xml version="1.0" encoding="iso-8859-1"?>
<!-- Uploaded to: SVG Repo, www.svgrepo.com, Generator: SVG Repo Mixer Tools -->
<!DOCTYPE svg PUBLIC "-//W3C//DTD SVG 1.1//EN" "http://www.w3.org/Graphics/SVG/1.1/DTD/svg11.dtd">
<svg fill="#000000" version="1.1" id="Capa_1" xmlns="http://www.w3.org/2000/svg" xmlns:xlink="http://www.w3.org/1999/xlink" 
	 width="800px" height="800px" viewBox="0 0 32 32.001" xml:space="preserve">
<g>
	<path d="M31.925,13.18c-0.31-0.416-1.907-2.509-2.866-2.813c-0.353-0.111-0.929-0.04-1.658,0.048
		c-0.743,0.091-1.643,0.201-2.34,0.104c-0.194-0.416-0.451-0.813-0.758-1.187c0.262-0.253,0.67-0.549,1.236-0.789
		c0.879-0.372,3.136-1.005,5.102,1.165c0.139,0.155,0.377,0.167,0.53,0.027c0.154-0.14,0.166-0.378,0.025-0.531
		c-2.438-2.694-5.311-1.656-6.133-1.273c-0.459,0.214-0.924,0.513-1.272,0.847c-1.659-1.609-4.361-2.657-7.416-2.657
		c-0.126,0-0.251,0.004-0.376,0.007c-0.125-0.003-0.25-0.007-0.376-0.007c-3.054,0-5.756,1.048-7.416,2.657
		c-0.35-0.334-0.814-0.633-1.274-0.847c-0.822-0.382-3.692-1.42-6.132,1.274c-0.14,0.153-0.128,0.392,0.026,0.531
		c0.154,0.14,0.392,0.128,0.531-0.027c1.965-2.17,4.222-1.537,5.101-1.165c0.567,0.24,0.975,0.536,1.236,0.789
		c-0.306,0.373-0.561,0.77-0.757,1.186c-0.697,0.097-1.595-0.013-2.34-0.104c-0.729-0.088-1.306-0.159-1.658-0.048
		c-0.96,0.304-2.556,2.397-2.866,2.813c-0.125,0.167-0.09,0.402,0.077,0.526c0.067,0.05,0.146,0.074,0.224,0.074
		c0.115,0,0.228-0.052,0.302-0.151c0.663-0.889,1.925-2.366,2.49-2.545c0.197-0.062,0.804,0.012,1.34,0.078
		c0.668,0.081,1.438,0.173,2.144,0.138c-0.051,0.181-0.091,0.365-0.119,0.551c-1.321-0.068-2.451,0.275-3.365,1.02
		c-1.99,1.624-2.218,4.562-2.228,4.688c-0.014,0.207,0.142,0.388,0.349,0.4c0.009,0.001,0.018,0.001,0.027,0.001
		c0.195,0,0.36-0.149,0.375-0.349c0.002-0.027,0.218-2.747,1.957-4.162c0.761-0.62,1.715-0.904,2.841-0.849
		c0.006,0.314,0.044,0.623,0.113,0.925C5.426,14.229,0,17.846,7.05,20.969c0.047,1.408,0.47,5.497,6.5,4.84
		c-1.801-1.737-2.577-3.056-2.577-3.056s1.621-0.47,3.923,0.425c0.517-0.752-0.517-3.195-1.691-3.714
		c-1.174-0.517-1.598-0.47-5.451-0.562c-3.329-0.346-1.418-3.608-0.849-4.473c1.165,2.592,4.628,4.473,8.72,4.473
		c0.126,0,0.251-0.004,0.376-0.008c0.125,0.004,0.25,0.008,0.376,0.008c4.092,0,7.555-1.881,8.721-4.473
		c0.568,0.864,2.479,4.127-0.85,4.473c-3.854,0.094-4.275,0.047-5.451,0.562c-1.175,0.517-2.208,2.962-1.691,3.714
		c2.304-0.895,3.924-0.425,3.924-0.425s-0.774,1.316-2.576,3.056c6.029,0.657,6.454-3.432,6.5-4.84
		c7.049-3.123,1.624-6.74,0.447-7.443c0.068-0.302,0.105-0.61,0.113-0.925c1.125-0.056,2.079,0.229,2.84,0.849
		c1.739,1.415,1.955,4.135,1.957,4.162c0.016,0.196,0.181,0.349,0.375,0.349c0.01,0,0.02,0,0.027-0.001
		c0.207-0.015,0.363-0.192,0.35-0.399c-0.01-0.125-0.236-3.064-2.229-4.688c-0.914-0.745-2.044-1.088-3.365-1.02
		c-0.027-0.187-0.068-0.37-0.117-0.552c0.705,0.035,1.476-0.057,2.145-0.138c0.536-0.066,1.144-0.14,1.34-0.078
		c0.564,0.179,1.828,1.656,2.49,2.545c0.072,0.1,0.187,0.151,0.302,0.151c0.078,0,0.157-0.024,0.225-0.074
		C32.016,13.582,32.05,13.347,31.925,13.18z"/>
</g>
</svg>